# xmcd CD database file
#
# Track frame offsets:
#	150
#	5700
#	23717
#	41757
#	59760
#	72625
#	90901
#	105531
#	122706
#	139307
#	161289
#
# Disc length: 2370 seconds
#
# Revision: 1
# Processed by: cddbd v1.5.2PL0 Copyright (c) Steve Scherf et al.
# Submitted via: CDex 1.51
#
DISCID=9509400b
DTITLE=Fania - Silmakha  { Sénégal }
DYEAR=2008
DGENRE=Musique Africaine
TTITLE0=Défaire les noeuds
TTITLE1=Daly yô
TTITLE2=Affair la
TTITLE3=Ma robe noire
TTITLE4=Bracelets en or
TTITLE5=Silmakha
TTITLE6=Touki
TTITLE7=Reggae dome
TTITLE8=Trio
TTITLE9=Da la
TTITLE10=Niar =2
EXTD=YEAR: 2008
EXTT0=
EXTT1=
EXTT2=
EXTT3=
EXTT4=
EXTT5=
EXTT6=
EXTT7=
EXTT8=
EXTT9=
EXTT10=
PLAYORDER=
